<svg xmlns="http://www.w3.org/2000/svg" viewBox="0 0 64 64" fill="none" aria-label="Principia mark">
  
  <g stroke="currentColor" stroke-width="1" stroke-linecap="round">
    <line x1="18" y1="12" x2="18" y2="52"></line>
    <line x1="18" y1="12" x2="40" y2="14"></line>
    <line x1="40" y1="14" x2="48" y2="22"></line>
    <line x1="48" y1="22" x2="44" y2="32"></line>
    <line x1="44" y1="32" x2="32" y2="34"></line>
    <line x1="32" y1="34" x2="18" y2="32"></line>
  </g>
  <g fill="currentColor">
    <circle cx="18" cy="12" r="2.2"></circle>
    <circle cx="40" cy="14" r="1.8"></circle>
    <circle cx="48" cy="22" r="2.2"></circle>
    <circle cx="44" cy="32" r="1.6"></circle>
    <circle cx="32" cy="34" r="1.6"></circle>
    <circle cx="18" cy="32" r="2.2"></circle>
    <circle cx="18" cy="52" r="2.6"></circle>
  </g>
  
  <g fill="currentColor" opacity="0.45">
    <circle cx="26" cy="13" r="0.7"></circle>
    <circle cx="46" cy="17" r="0.7"></circle>
    <circle cx="36" cy="33" r="0.7"></circle>
    <circle cx="18" cy="22" r="0.7"></circle>
    <circle cx="18" cy="42" r="0.7"></circle>
  </g>
</svg>